<svg width="48" height="48" viewBox="0 0 48 48" fill="none" xmlns="http://www.w3.org/2000/svg">
<path d="M24 2.29999C12.7 2.29999 0.5 4.59999 0.5 9.59999V14.5C0.5 15.5 0.9 16.5 1.7 17.1C2.4 17.7 3.2 18 4.1 17.8L11.1 16.9C12.7 16.7 13.9 15.2 13.9 13.5V11.2C15 10.7 18.5 10.1 24.1 10.1C29.7 10.1 33.2 10.8 34.3 11.2V13.5C34.3 15.2 35.5 16.7 37.1 16.9L44.1 17.8C44.2 17.8 44.4 17.8 44.5 17.8C45.2 17.8 45.9 17.5 46.5 17C47.2 16.4 47.7 15.4 47.7 14.4V9.59999C47.5 4.59999 35.3 2.29999 24 2.29999ZM44.5 14.4C44.5 14.7 44.4 14.8 44.3 14.8L37.3 13.9C37.3 13.9 37.1 13.7 37.1 13.5V10.6C37.1 8.19999 32.7 6.99999 23.9 6.99999C15.1 6.99999 10.7 8.19999 10.7 10.6V13.5C10.7 13.7 10.6 13.9 10.5 13.9L3.5 14.8C3.5 14.8 3.3 14.7 3.3 14.4V9.59999C3.3 8.39999 10.5 5.29999 23.8 5.29999C37.1 5.29999 44.3 8.29999 44.3 9.59999V14.4H44.5Z" fill="black"/>
<path d="M17.2 11.6V15.2C11.2 18.3 6.50002 25.4 4.40002 34.4C3.70002 37.5 4.40002 40.8 6.20002 43C7.60002 44.7 9.40002 45.7 11.4 45.7H36.6C38.6 45.7 40.4 44.8 41.8 43C43.6 40.7 44.3 37.4 43.6 34.4C41.5 25.4 36.8 18.3 30.9 15.2V11.6H27.9V14.6H20.3V11.6H17.2ZM40.6 35.1C41.1 37.3 40.6 39.6 39.4 41.2C38.6 42.2 37.6 42.7 36.6 42.7H11.4C10.4 42.7 9.40002 42.2 8.60002 41.2C7.30002 39.6 6.90002 37.3 7.40002 35.1C9.30002 26.7 13.7 20.1 19.1 17.6H29C34.3 20.1 38.7 26.6 40.6 35.1Z" fill="black"/>
<path d="M19.2 25.7H15.3V28.7H19.2V25.7Z" fill="black"/>
<path d="M25.9 25.7H22V28.7H25.9V25.7Z" fill="black"/>
<path d="M32.7 25.7H28.8V28.7H32.7V25.7Z" fill="black"/>
<path d="M19.2 31H15.3V34H19.2V31Z" fill="black"/>
<path d="M25.9 31H22V34H25.9V31Z" fill="black"/>
<path d="M32.7 31H28.8V34H32.7V31Z" fill="black"/>
<path d="M19.2 36.3H15.3V39.3H19.2V36.3Z" fill="black"/>
<path d="M25.9 36.3H22V39.3H25.9V36.3Z" fill="black"/>
<path d="M32.7 36.3H28.8V39.3H32.7V36.3Z" fill="black"/>
</svg>
